<svg version="1.1" id="assays-confirm" xmlns="http://www.w3.org/2000/svg" x="0" y="0" viewBox="0 0 58.2 38.2" xml:space="preserve"><path id="vials-solid" d="M5.4 4.8h1.8v17.9c0 3.3 2.7 5.9 6 5.9 3.2 0 5.8-2.7 5.9-5.9V4.8h1.8c.3 0 .6-.3.6-.6V.6c0-.3-.3-.6-.6-.6H5.4c-.4 0-.6.3-.6.6v3.6c0 .3.2.6.6.6zm5.3 0h4.8V12h-4.8V4.8zM57 33.4H1.2c-.7 0-1.2.5-1.2 1.2V37c0 .7.5 1.2 1.2 1.2H57c.7 0 1.2-.5 1.2-1.2v-2.4c0-.7-.6-1.2-1.2-1.2z"/><path id="check-solid" d="M36.4 25.4L27 15.9c-.6-.6-.6-1.5 0-2.1l2.1-2.1c.6-.6 1.5-.6 2.1 0l6.4 6.4L51.1 4.5c.6-.6 1.5-.6 2.1 0l2.1 2.1c.6.6.6 1.5 0 2.1L38.5 25.3c-.6.6-1.5.6-2.1.1 0-.1 0-.1 0 0z"/></svg>