<svg version="1.1" id="assays-missing" xmlns="http://www.w3.org/2000/svg" x="0" y="0" viewBox="0 0 58.2 38.2" xml:space="preserve"><path id="question" d="M41.4.1C37.7 0 34.2 1.8 32.2 5c-.4.6-.3 1.3.3 1.8l2.3 1.7c.6.4 1.3.3 1.8-.2 1.3-1.7 2.3-2.6 4.4-2.6 1.6 0 3.7 1.1 3.7 2.7 0 1.2-1 1.8-2.6 2.7-1.9 1.1-4.4 2.4-4.4 5.7v.5c0 .7.6 1.3 1.3 1.3h3.9c.7 0 1.3-.6 1.3-1.3V17c0-2.3 6.7-2.4 6.7-8.6-.1-4.8-5-8.3-9.5-8.3zM40.9 20c-2 0-3.7 1.7-3.7 3.7s1.7 3.7 3.7 3.7 3.7-1.7 3.7-3.7-1.7-3.7-3.7-3.7z"/><path id="vials-solid" d="M5.4 4.9h1.8v17.9c0 3.3 2.7 5.9 6 5.9 3.2 0 5.8-2.7 5.9-5.9V4.9h1.8c.3 0 .6-.3.6-.6V.7c0-.3-.3-.6-.6-.6H5.4c-.4 0-.6.3-.6.6v3.6c0 .3.2.6.6.6zm5.3 0h4.8V12h-4.8V4.9zM57 33.5H1.2c-.7 0-1.2.5-1.2 1.2v2.4c0 .7.5 1.2 1.2 1.2H57c.7 0 1.2-.5 1.2-1.2v-2.4c0-.7-.6-1.2-1.2-1.2z"/></svg>