<svg xmlns="http://www.w3.org/2000/svg" viewBox="0 0 89 226" fill="#d9f1e9"><path d="M20.4 71.9h-4.2v50c0 1.1 0 2.1-.2 3.2-.7 4.3-3.6 6.8-8 6.7-4.2-.1-7.5-3.1-7.9-7.3-.1-.8-.1-1.6-.1-2.4v-55c0-10.4 4.6-18 13.7-22.9 3.5-1.9 7.3-2.4 11.2-2.4h39.2c10.3 0 17.8 4.6 22.6 13.7 1.7 3.2 2.3 6.7 2.3 10.4v57.5c0 5.1-3.2 8.3-8.1 8.3-4.9-.1-8-3.2-8-8.4V74.4v-2.6h-4.4v142.1c0 4-.9 7.5-4.3 10-6.3 4.6-15.6.9-16.9-6.8-.2-1.2-.2-2.4-.2-3.6v-78.4-2.9h-4.7v82.2c0 5.3-2.6 9.3-7.1 10.8-8.3 2.7-15-4.4-14.9-10.9.2-46.5.1-93 .1-139.5-.1-.9-.1-1.8-.1-2.9zM63.2 18.8c-.4 10.9-8.4 18.5-19.3 18.1-10.6-.4-18-8.4-17.6-19C26.6 7.6 35-.4 45 0c10.3.4 18.5 8.9 18.2 18.8z"/></svg>