<svg version="1.1" id="logo" xmlns="http://www.w3.org/2000/svg" x="0" y="0" viewBox="0 0 197.1 58.9" xml:space="preserve"><style>.st0{fill:#fff}</style><g id="nih"><path id="arrow" class="st0" d="M75.8 4.5c-1.1-1.8-3-2.8-5-2.8h-4.5l15.2 27-15.2 27h4.5c2 0 3.9-1.1 5-2.8l13.5-24.2L75.8 4.5z"/><path id="nih-rect" class="st0" d="M62.3 1.7H8.1c-3.2 0-5.8 2.6-5.8 5.8v42.4c0 3.2 2.6 5.8 5.8 5.8h54.2l15-27-15-27zm-32 39h-4l-11-17.6v17.6h-4v-24h4l11 17.6V16.7h4v24zm8 0h-4v-24h4v24zm23 0h-4v-10h-11v10h-4v-24h4v10h11v-10h4v24z"/></g><g id="national"><path id="n" class="st0" d="M109.2 2h2.8v12.4h-2.8l-5.9-7.8v7.7h-2.8V2h2.6l6.1 8V2z"/><path id="a" class="st0" d="M123.8 14.4l-1.1-2.7h-5.2l-1.2 2.7h-2.9L118.7 2h2.7l5.3 12.4h-2.9zm-3.7-8.7l-1.6 3.6h3.1l-1.5-3.6z"/><path id="t" class="st0" d="M132.5 4.4v10h-2.8v-10h-3.5V2h9.8v2.4h-3.5z"/><path id="i" class="st0" d="M138 2h2.8v12.4H138V2z"/><path id="o" class="st0" d="M154.2 12.6c-2.6 2.4-6.6 2.4-9.2 0a6.42 6.42 0 01-1.9-4.6c0-1.7.6-3.4 1.9-4.6 2.6-2.4 6.6-2.4 9.2 0 1.2 1.2 1.9 2.8 1.9 4.6 0 1.8-.7 3.5-1.9 4.6zm-.9-4.5c0-1-.4-2.1-1.1-2.8-1.3-1.4-3.5-1.6-4.9-.3l-.3.3c-.7.8-1.1 1.8-1.1 2.8 0 1 .4 2 1.1 2.8 1.3 1.4 3.6 1.5 5 .2l.2-.2c.7-.7 1.1-1.8 1.1-2.8z"/><path id="n_1_" class="st0" d="M167.1 2h2.8v12.4h-2.8l-5.9-7.8v7.7h-2.8V2h2.6l6.1 8V2z"/><path id="a_1_" class="st0" d="M181.7 14.4l-1.1-2.7h-5.2l-1.1 2.7h-2.9L176.6 2h2.7l5.3 12.4h-2.9zM178 5.7l-1.6 3.6h3.1L178 5.7z"/><path id="l" class="st0" d="M186 14.4V2h2.8v9.9h5.3v2.5H186z"/></g><g id="cancer"><path id="c" class="st0" d="M106.6 32.9c1.3 0 2.5-.6 3.3-1.6l1.8 1.8c-2.4 2.8-6.6 3.2-9.4.8-.1-.1-.2-.2-.3-.2a6.42 6.42 0 01-1.9-4.6c0-1.7.6-3.4 1.9-4.6 1.2-1.2 2.9-1.9 4.6-1.8 2 0 3.8.8 5.1 2.3l-1.7 2c-.8-1-2-1.6-3.2-1.7-1 0-1.9.3-2.7 1-.8.7-1.2 1.7-1.1 2.7 0 1 .3 2 1 2.8.7.7 1.6 1.1 2.6 1.1z"/><path id="a_2_" class="st0" d="M122.6 35.3l-1.1-2.7h-5.2l-1.1 2.7h-2.9l5.3-12.4h2.7l5.3 12.4h-3zm-3.8-8.6l-1.6 3.6h3.1l-1.5-3.6z"/><path id="n_2_" class="st0" d="M135.6 23h2.8v12.4h-2.8l-5.9-7.8v7.7h-2.8V23h2.6l6.1 8v-8z"/><path id="c_1_" class="st0" d="M147.1 32.9c1.3 0 2.5-.6 3.3-1.6l1.8 1.8c-2.4 2.8-6.6 3.2-9.4.8-.1-.1-.2-.2-.3-.2a6.42 6.42 0 01-1.9-4.6c0-1.7.6-3.4 1.9-4.6 1.2-1.2 2.9-1.9 4.6-1.8 2 0 3.8.8 5.1 2.3l-1.7 1.9c-.8-1-2-1.6-3.3-1.6-1 0-1.9.3-2.7 1-.8.7-1.2 1.7-1.1 2.7 0 1 .3 2 1 2.8.8.8 1.7 1.1 2.7 1.1z"/><path id="e" class="st0" d="M163.2 23v2.5H157V28h5.5v2.4H157V33h6.3v2.4h-9.1V23h9z"/><path id="r" class="st0" d="M175.9 27.1c0 2-.8 3.2-2.4 3.8l3.1 4.4h-3.4l-2.7-3.9h-1.9v3.9h-2.8V23h4.7c1.9 0 3.3.3 4.1 1 .9.6 1.3 1.6 1.3 3.1zm-3.3 1.4c.4-.4.6-.9.5-1.5.1-.5-.1-1-.5-1.4-.6-.3-1.2-.4-1.9-.4h-2.1V29h2c.8.1 1.4-.1 2-.5z"/></g><g id="institute"><path id="i_1_" class="st0" d="M100.1 43.2h2.8v12.4h-2.8V43.2z"/><path id="n_3_" class="st0" d="M114.6 43.2h2.8v12.4h-2.8l-5.9-7.8v7.7h-2.8V43.2h2.6l6.1 8v-8z"/><path id="s" class="st0" d="M123.3 45.7c-.3.2-.4.5-.4.9s.2.7.5.9c.7.3 1.5.6 2.2.7 1 .2 1.9.7 2.7 1.3.7.7 1 1.6 1 2.5 0 1-.4 2-1.2 2.7-.9.7-2.1 1.1-3.3 1-2 0-3.9-.8-5.3-2.2l1.6-2c1.3 1.2 2.6 1.8 3.7 1.8.4 0 .8-.1 1.2-.3.3-.2.4-.5.4-.9s-.2-.7-.5-.9c-.6-.3-1.2-.5-1.8-.7-1.1-.2-2.2-.7-3.2-1.3-.7-.7-1.1-1.6-1-2.6-.1-1.1.4-2.1 1.3-2.7.9-.7 2-1 3.2-1 .8 0 1.7.1 2.5.4.8.3 1.5.7 2.2 1.2l-1.4 2c-.9-.8-2.1-1.2-3.3-1.2-.5 0-.9.1-1.1.4z"/><path id="t_1_" class="st0" d="M136.8 45.6v10H134v-10h-3.5v-2.4h9.8v2.4h-3.5z"/><path id="i_2_" class="st0" d="M142.3 43.2h2.8v12.4h-2.8V43.2z"/><path id="t_2_" class="st0" d="M153.3 45.6v10h-2.8v-10H147v-2.4h9.8v2.4h-3.5z"/><path id="u" class="st0" d="M162.1 52.4c.9 1 2.4 1.2 3.4.3l.3-.3c.5-.7.7-1.5.7-2.4v-6.8h2.8v6.9c0 1.8-.5 3.2-1.5 4.1a5.78 5.78 0 01-7.6 0c-1-1-1.5-2.3-1.5-4.1v-6.9h2.8V50c-.1.9.1 1.7.6 2.4z"/><path id="t_3_" class="st0" d="M177.4 45.6v10h-2.8v-10h-3.5v-2.4h9.8v2.4h-3.5z"/><path id="e_1_" class="st0" d="M191.8 43.2v2.5h-6.2v2.5h5.5v2.4h-5.5v2.6h6.3v2.4h-9.1V43.2h9z"/></g></svg>