<svg id="Layer_1" data-name="Layer 1" xmlns="http://www.w3.org/2000/svg" width="565.83" height="54"><defs><style>.cls-1{fill:#fff}</style></defs><path class="cls-1" d="M114.67 16.16h4.68v21h-4.68L104.68 24v13.13H100v-21h4.38l10.29 13.5zM139.45 37.13l-1.95-4.53h-8.79l-2 4.53h-5l9.06-21h4.53l9.06 21zm-6.33-14.73l-2.64 6.09h5.25zM154.21 20.21v16.92h-4.68V20.21h-5.94v-4.05h16.56v4.05zM163.56 16.16h4.68v21h-4.68zM191 34.23a11.41 11.41 0 01-15.66 0 10.35 10.35 0 01-3.18-7.72 10.37 10.37 0 013.18-7.73 11.44 11.44 0 0115.66 0 10.38 10.38 0 013.19 7.73 10.36 10.36 0 01-3.19 7.72zm-1.59-7.71a6.85 6.85 0 00-1.8-4.78 5.93 5.93 0 00-8.85 0 6.85 6.85 0 00-1.8 4.78 6.81 6.81 0 001.8 4.77 6 6 0 008.85 0 6.81 6.81 0 001.84-4.77zM212.85 16.16h4.68v21h-4.68L202.86 24v13.13h-4.68v-21h4.38l10.29 13.5zM237.63 37.13l-1.95-4.53h-8.79l-1.95 4.53h-5l9.07-21h4.53l9.06 21zM231.3 22.4l-2.64 6.09h5.25zM245 37.13v-21h4.68V33h8.94v4.17zM279.63 33a6.91 6.91 0 005.64-2.73l3 3.09a11.31 11.31 0 01-16.39 1 10.36 10.36 0 01-3.14-7.73 10.43 10.43 0 013.2-7.78 10.75 10.75 0 017.81-3.12 11.08 11.08 0 018.64 3.93l-2.91 3.3a6.82 6.82 0 00-5.48-2.81 6.42 6.42 0 00-4.51 1.72 6 6 0 00-1.88 4.65 6.36 6.36 0 001.77 4.7 5.84 5.84 0 004.25 1.78zM306.75 37.13l-1.95-4.53H296l-1.95 4.53h-5l9.06-21h4.53l9.06 21zm-6.33-14.73l-2.64 6.09H303zM328.83 16.16h4.68v21h-4.68L318.84 24v13.13h-4.68v-21h4.38l10.29 13.5V16.16zM348.3 33a6.91 6.91 0 005.64-2.73l3 3.09a11.31 11.31 0 01-16.39 1 10.36 10.36 0 01-3.14-7.73 10.43 10.43 0 013.2-7.78 10.75 10.75 0 017.81-3.12 11.08 11.08 0 018.64 3.93l-2.91 3.3a6.82 6.82 0 00-5.52-2.76 6.42 6.42 0 00-4.51 1.72 6 6 0 00-1.88 4.65 6.36 6.36 0 001.77 4.7A5.84 5.84 0 00348.3 33zM375.75 16.16v4.17h-10.44v4.32h9.39v4h-9.39V33h10.77v4.14h-15.45v-21zM397.26 23.12q0 5-4 6.51l5.31 7.5h-5.76l-4.65-6.69h-3.24v6.69h-4.68v-21h7.95q4.89 0 7 1.65t2.08 5.31zm-5.64 2.49a3.18 3.18 0 00.87-2.48 2.64 2.64 0 00-.9-2.32 5.76 5.76 0 00-3.15-.63h-3.51v6.21h3.42a5 5 0 003.27-.78zM410 16.16h4.68v21H410zM434.49 16.16h4.68v21h-4.68L424.5 24v13.13h-4.68v-21h4.38l10.29 13.5V16.16zM449.24 20.34a1.81 1.81 0 00-.68 1.47 1.67 1.67 0 00.83 1.46 15.15 15.15 0 003.81 1.27 10.7 10.7 0 014.63 2.21 5.45 5.45 0 011.65 4.25 5.65 5.65 0 01-2.11 4.57 8.45 8.45 0 01-5.57 1.76 12.88 12.88 0 01-9-3.69l2.79-3.42q3.39 3 6.27 3a3.31 3.31 0 002-.56 1.78 1.78 0 00.73-1.5 1.75 1.75 0 00-.78-1.5 10.2 10.2 0 00-3.09-1.12 13.41 13.41 0 01-5.35-2.27 5.35 5.35 0 01-1.7-4.38 5.42 5.42 0 012.15-4.6 8.62 8.62 0 015.35-1.62 12.88 12.88 0 014.2.72 11.25 11.25 0 013.66 2l-2.37 3.42a9.23 9.23 0 00-5.64-2.07 2.8 2.8 0 00-1.84.55zM472.17 20.21v16.92h-4.68V20.21h-5.94v-4.05h16.56v4.05zM481.53 16.16h4.68v21h-4.68zM500.25 20.21v16.92h-4.68V20.21h-5.94v-4.05h16.56v4.05zM515.16 31.71a4.12 4.12 0 006.29 0 6.21 6.21 0 001.15-4V16.16h4.68v11.73q0 4.56-2.52 7a9.73 9.73 0 01-12.92 0q-2.54-2.46-2.53-7V16.16H514v11.58a6.16 6.16 0 001.16 3.97zM541 20.21v16.92h-4.68V20.21h-5.92v-4.05H547v4.05zM565.5 16.16v4.17h-10.44v4.32h9.39v4h-9.39V33h10.77v4.14h-15.45v-21zM73.5 2.82a5.84 5.84 0 00-5-2.82H64l15.2 27L64 54h4.49a5.84 5.84 0 005-2.82L87 27z"/><path class="cls-1" d="M60 0H5.77A5.78 5.78 0 000 5.79v42.42A5.78 5.78 0 005.77 54H60l15-27zM28 39h-4L13 21.4V39H9V15h4l11 17.6V15h4zm8 0h-4V15h4zm23 0h-4V29H44v10h-4V15h4v10h11V15h4z"/></svg>