<svg xmlns="http://www.w3.org/2000/svg" viewBox="0 0 104.5 226"><path d="M71 67.9c8.3 28.1 16.6 56.2 25 84.6-.8.1-1.5.2-2.3.2-6.4 0-12.8.1-19.2 0-1.9 0-2.5.5-2.5 2.4.1 20.4 0 40.7.1 61.1 0 2.5-.1 4.9-2 6.8-3 3-6.5 3.5-10.3 2.3-3.5-1.2-5.1-3.9-5.1-8.6v-49.9-11.4c0-2.8 0-2.8-2.8-2.7-.4 0-.8.1-1.6.1v64.5c-.1 5.4-3.5 8.8-8.7 8.7-5.4-.1-8.9-3.5-8.9-8.8v-61.5-2.8H8.4C17 124.2 25.3 96.1 33.6 68c-3.5-1.1-4.1-.7-5.1 2.5-4.7 15.7-9.3 31.5-14 47.2-1.7 5.6-6.5 7.5-11.3 4.5-2.7-1.7-3.8-4.7-2.9-7.7 4.4-15 8.7-30 13.2-45 1.6-5.2 3-10.5 5.6-15.1 4.3-7.7 11.1-12.3 20.5-12.1 8.4.2 16.7 0 25.1 0 11.5 0 20.9 7.1 24.1 18.3l15.3 53.4c1.1 3.7-.2 7-3.1 8.5-3.7 1.8-7.3 1.4-9.3-1.4-.9-1.2-1.4-2.8-1.8-4.2C85.1 101 80.4 85 75.7 69.1c-.8-2.8-2.9-.8-4.3-1.6-.1.1-.2.3-.4.4zM52.7 0c9.9 0 18.2 8.4 18.1 18.6C70.8 29.1 63 37 52.7 37c-11 0-19.1-7.9-19-18.5C33.8 8.2 42.2 0 52.7 0z"/></svg>